<?xml version="1.0"?>
<svg xmlns="http://www.w3.org/2000/svg" xmlns:xlink="http://www.w3.org/1999/xlink" xmlns:svgjs="http://svgjs.com/svgjs" version="1.1" width="512" height="512" x="0" y="0" viewBox="0 0 512 512" style="enable-background:new 0 0 512 512" xml:space="preserve" class=""><g>
<g xmlns="http://www.w3.org/2000/svg">
	<g>
		<g>
			<path d="M469.333,0H42.667C19.114,0.028,0.028,19.114,0,42.667v426.667C0.028,492.886,19.114,511.972,42.667,512h426.667     c23.552-0.028,42.638-19.114,42.667-42.667V42.667C511.972,19.114,492.886,0.028,469.333,0z M494.933,469.333     c0,14.138-11.461,25.6-25.6,25.6H42.667c-14.138,0-25.6-11.461-25.6-25.6v-384h477.867V469.333z M494.933,68.267H17.067v-25.6     c0-14.138,11.462-25.6,25.6-25.6h426.667c14.138,0,25.6,11.462,25.6,25.6V68.267z" fill="#ccd6f6" data-original="#000000" style="" class=""/>
			<path d="M59.733,34.133H51.2c-4.713,0-8.533,3.82-8.533,8.533S46.487,51.2,51.2,51.2h8.533c4.713,0,8.533-3.82,8.533-8.533     S64.446,34.133,59.733,34.133z" fill="#ccd6f6" data-original="#000000" style="" class=""/>
			<path d="M99.925,36.608c-3.422-3.157-8.695-3.157-12.117,0c-0.753,0.83-1.359,1.782-1.792,2.816     c-0.478,1.013-0.712,2.123-0.683,3.243c-0.023,2.27,0.869,4.454,2.474,6.059s3.789,2.497,6.059,2.474     c1.115-0.013,2.217-0.245,3.243-0.683c1.033-0.435,1.985-1.041,2.816-1.792c2.443-2.442,3.153-6.126,1.792-9.301     C101.284,38.39,100.678,37.438,99.925,36.608z" fill="#ccd6f6" data-original="#000000" style="" class=""/>
			<path d="M124.757,34.816c-1.044,0.412-2,1.021-2.816,1.792c-1.563,1.633-2.447,3.799-2.475,6.059     c-0.029,1.119,0.204,2.23,0.683,3.243c0.435,1.033,1.041,1.985,1.792,2.816c0.816,0.771,1.772,1.38,2.816,1.792     c2.066,0.911,4.419,0.911,6.485,0c1.033-0.435,1.985-1.041,2.816-1.792c0.751-0.831,1.357-1.783,1.792-2.816     c0.474-1.014,0.708-2.124,0.683-3.243c-0.031-2.259-0.915-4.423-2.475-6.059C131.605,34.187,127.935,33.48,124.757,34.816z" fill="#ccd6f6" data-original="#000000" style="" class=""/>
			<path d="M460.8,34.133H170.667c-4.713,0-8.533,3.82-8.533,8.533s3.82,8.533,8.533,8.533H460.8c4.713,0,8.533-3.82,8.533-8.533     S465.513,34.133,460.8,34.133z" fill="#ccd6f6" data-original="#000000" style="" class=""/>
			<path d="M165.888,277.632l30.379,10.112V307.2H179.2c-4.713,0-8.533,3.82-8.533,8.533s3.82,8.533,8.533,8.533h17.067v17.067     c0,0.794,0.085,1.562,0.12,2.347l-30.498,10.163c-12.649,4.276-19.919,17.523-16.734,30.49l4.702,18.773     c0.938,3.81,4.353,6.49,8.277,6.494c0.699-0.002,1.395-0.087,2.074-0.256c4.571-1.142,7.351-5.771,6.212-10.342l-4.702-18.773     c-1.055-4.324,1.367-8.738,5.581-10.172l28.237-9.387c8.222,24.184,30.93,40.449,56.474,40.449     c25.544,0,48.252-16.265,56.474-40.449l28.237,9.387c4.218,1.434,6.641,5.853,5.581,10.18l-4.702,18.773     c-1.139,4.571,1.642,9.201,6.212,10.342c0.673,0.164,1.364,0.247,2.057,0.247c3.913-0.005,7.322-2.671,8.269-6.468l4.702-18.773     c3.186-12.969-4.084-26.218-16.734-30.498l-30.498-10.163c0-0.785,0.119-1.553,0.119-2.347v-17.084h17.067     c4.713,0,8.533-3.82,8.533-8.533s-3.82-8.533-8.533-8.533h-17.058v-19.456l30.379-10.121     c12.649-4.276,19.919-17.523,16.734-30.49l-4.702-18.773c-0.68-3.02-2.942-5.436-5.911-6.311s-6.18-0.075-8.39,2.093     c-2.21,2.168-3.072,5.363-2.254,8.348l4.702,18.773c1.055,4.324-1.367,8.738-5.581,10.172l-24.977,8.329V256     c-0.01-17.065-7.343-33.304-20.139-44.595l9.105-9.105c3.234-3.348,3.188-8.671-0.104-11.962     c-3.292-3.292-8.614-3.338-11.962-0.104l-11.605,11.605c-15.858-7.43-34.198-7.43-50.057,0l-11.605-11.605     c-3.348-3.234-8.671-3.188-11.962,0.104c-3.292,3.292-3.338,8.614-0.104,11.962l9.105,9.105     c-12.795,11.291-20.129,27.531-20.139,44.595v13.764l-24.977-8.32c-4.218-1.434-6.641-5.853-5.581-10.18l4.702-18.773     c1.018-4.523-1.762-9.031-6.26-10.153c-4.498-1.122-9.069,1.552-10.295,6.023l-4.702,18.773     C145.968,260.103,153.238,273.352,165.888,277.632z M256,213.291c20.291,0,37.775,14.291,41.813,34.176h-83.627     C218.225,227.581,235.709,213.291,256,213.291z M213.333,264.533h85.333v76.8c-0.026,20.268-14.281,37.731-34.133,41.813V307.2     c0-4.713-3.82-8.533-8.533-8.533s-8.533,3.82-8.533,8.533v75.947c-19.852-4.083-34.108-21.546-34.133-41.813V264.533z" fill="#ccd6f6" data-original="#000000" style="" class=""/>
			<path d="M76.8,179.2c14.138,0,25.6-11.461,25.6-25.6v-17.067c0-14.138-11.462-25.6-25.6-25.6s-25.6,11.461-25.6,25.6V153.6     C51.2,167.739,62.661,179.2,76.8,179.2z M68.267,136.533c0-4.713,3.82-8.533,8.533-8.533s8.533,3.82,8.533,8.533V153.6     c0,4.713-3.82,8.533-8.533,8.533s-8.533-3.821-8.533-8.533V136.533z" fill="#ccd6f6" data-original="#000000" style="" class=""/>
			<path d="M102.4,247.467c0,14.138,11.461,25.6,25.6,25.6c4.713,0,8.533-3.82,8.533-8.533S132.713,256,128,256     s-8.533-3.82-8.533-8.533V230.4c0-4.713,3.82-8.533,8.533-8.533s8.533-3.821,8.533-8.533c0-4.713-3.82-8.533-8.533-8.533     c-14.138,0-25.6,11.462-25.6,25.6V247.467z" fill="#ccd6f6" data-original="#000000" style="" class=""/>
			<path d="M179.2,179.2c14.138,0,25.6-11.461,25.6-25.6v-17.067c0-14.138-11.461-25.6-25.6-25.6s-25.6,11.461-25.6,25.6V153.6     C153.6,167.739,165.062,179.2,179.2,179.2z M170.667,136.533c0-4.713,3.82-8.533,8.533-8.533s8.533,3.82,8.533,8.533V153.6     c0,4.713-3.82,8.533-8.533,8.533s-8.533-3.821-8.533-8.533V136.533z" fill="#ccd6f6" data-original="#000000" style="" class=""/>
			<path d="M392.533,179.2c14.138,0,25.6-11.461,25.6-25.6v-17.067c0-14.138-11.462-25.6-25.6-25.6c-14.138,0-25.6,11.461-25.6,25.6     V153.6C366.933,167.739,378.395,179.2,392.533,179.2z M384,136.533c0-4.713,3.821-8.533,8.533-8.533     c4.713,0,8.533,3.82,8.533,8.533V153.6c0,4.713-3.821,8.533-8.533,8.533c-4.713,0-8.533-3.821-8.533-8.533V136.533z" fill="#ccd6f6" data-original="#000000" style="" class=""/>
			<path d="M418.133,247.467c0,14.138,11.462,25.6,25.6,25.6c14.138,0,25.6-11.461,25.6-25.6V230.4c0-14.138-11.462-25.6-25.6-25.6     c-14.138,0-25.6,11.462-25.6,25.6V247.467z M435.2,230.4c0-4.713,3.82-8.533,8.533-8.533s8.533,3.82,8.533,8.533v17.067     c0,4.713-3.82,8.533-8.533,8.533s-8.533-3.82-8.533-8.533V230.4z" fill="#ccd6f6" data-original="#000000" style="" class=""/>
			<path d="M315.733,162.133c4.713,0,8.533-3.821,8.533-8.533v-17.067c0-4.713,3.821-8.533,8.533-8.533     c4.713,0,8.533,3.82,8.533,8.533V153.6c0,4.713,3.82,8.533,8.533,8.533s8.533-3.821,8.533-8.533v-17.067     c0-14.138-11.462-25.6-25.6-25.6c-14.138,0-25.6,11.461-25.6,25.6V153.6C307.2,158.313,311.021,162.133,315.733,162.133z" fill="#ccd6f6" data-original="#000000" style="" class=""/>
			<path d="M110.933,170.667c0,4.713,3.82,8.533,8.533,8.533h17.067c4.713,0,8.533-3.82,8.533-8.533s-3.82-8.533-8.533-8.533     v-42.667c-0.001-3.451-2.08-6.562-5.268-7.882c-3.188-1.32-6.858-0.591-9.298,1.849l-8.533,8.533     c-2.44,2.44-3.169,6.11-1.849,9.298c1.32,3.188,4.431,5.267,7.882,5.268v25.6C114.754,162.133,110.933,165.954,110.933,170.667z" fill="#ccd6f6" data-original="#000000" style="" class=""/>
			<path d="M76.8,366.933c14.138,0,25.6-11.462,25.6-25.6v-17.067c0-14.138-11.462-25.6-25.6-25.6s-25.6,11.462-25.6,25.6v17.067     C51.2,355.472,62.661,366.933,76.8,366.933z M68.267,324.267c0-4.713,3.82-8.533,8.533-8.533s8.533,3.82,8.533,8.533v17.067     c0,4.713-3.82,8.533-8.533,8.533s-8.533-3.82-8.533-8.533V324.267z" fill="#ccd6f6" data-original="#000000" style="" class=""/>
			<path d="M247.467,418.133c-4.713,0-8.533,3.82-8.533,8.533v8.533c0,4.713-3.82,8.533-8.533,8.533s-8.533-3.82-8.533-8.533v-8.533     c0-4.713-3.821-8.533-8.533-8.533c-4.713,0-8.533,3.82-8.533,8.533v8.533c0,14.138,11.462,25.6,25.6,25.6s25.6-11.462,25.6-25.6     v-8.533C256,421.954,252.18,418.133,247.467,418.133z" fill="#ccd6f6" data-original="#000000" style="" class=""/>
			<path d="M307.2,418.133c-4.713,0-8.533,3.82-8.533,8.533v8.533c0,4.713-3.82,8.533-8.533,8.533s-8.533-3.82-8.533-8.533v-8.533     c0-4.713-3.821-8.533-8.533-8.533c-4.713,0-8.533,3.82-8.533,8.533v8.533c0,14.138,11.462,25.6,25.6,25.6s25.6-11.462,25.6-25.6     v-8.533C315.733,421.954,311.913,418.133,307.2,418.133z" fill="#ccd6f6" data-original="#000000" style="" class=""/>
			<path d="M110.933,358.4c0,4.713,3.82,8.533,8.533,8.533h17.067c4.713,0,8.533-3.82,8.533-8.533s-3.82-8.533-8.533-8.533V307.2     c-0.001-3.451-2.08-6.562-5.268-7.882c-3.188-1.32-6.858-0.591-9.298,1.849l-8.533,8.533c-2.44,2.44-3.169,6.11-1.849,9.298     c1.32,3.188,4.431,5.267,7.882,5.268v25.6C114.754,349.867,110.933,353.687,110.933,358.4z" fill="#ccd6f6" data-original="#000000" style="" class=""/>
			<path d="M392.533,366.933c14.138,0,25.6-11.462,25.6-25.6v-17.067c0-14.138-11.462-25.6-25.6-25.6     c-14.138,0-25.6,11.462-25.6,25.6v17.067C366.933,355.472,378.395,366.933,392.533,366.933z M384,324.267     c0-4.713,3.821-8.533,8.533-8.533c4.713,0,8.533,3.82,8.533,8.533v17.067c0,4.713-3.821,8.533-8.533,8.533     c-4.713,0-8.533-3.82-8.533-8.533V324.267z" fill="#ccd6f6" data-original="#000000" style="" class=""/>
			<path d="M426.667,358.4c0,4.713,3.82,8.533,8.533,8.533h17.067c4.713,0,8.533-3.82,8.533-8.533s-3.821-8.533-8.533-8.533V307.2     c-0.001-3.451-2.08-6.562-5.268-7.882c-3.188-1.32-6.858-0.591-9.298,1.849l-8.533,8.533c-2.44,2.44-3.169,6.11-1.849,9.298     c1.321,3.188,4.431,5.267,7.882,5.268v25.6C430.487,349.867,426.667,353.687,426.667,358.4z" fill="#ccd6f6" data-original="#000000" style="" class=""/>
			<path d="M59.733,264.533c0,4.713,3.82,8.533,8.533,8.533h17.067c4.713,0,8.533-3.82,8.533-8.533S90.046,256,85.333,256v-42.667     c-0.001-3.451-2.08-6.562-5.268-7.882c-3.188-1.32-6.858-0.591-9.298,1.849l-8.533,8.533c-2.44,2.44-3.169,6.11-1.849,9.298     c1.32,3.188,4.431,5.267,7.882,5.268V256C63.554,256,59.733,259.82,59.733,264.533z" fill="#ccd6f6" data-original="#000000" style="" class=""/>
			<path d="M375.467,264.533c0,4.713,3.82,8.533,8.533,8.533h17.067c4.713,0,8.533-3.82,8.533-8.533S405.78,256,401.067,256v-42.667     c-0.001-3.451-2.08-6.562-5.268-7.882c-3.188-1.32-6.858-0.591-9.298,1.849l-8.533,8.533c-2.44,2.44-3.169,6.11-1.849,9.298     c1.32,3.188,4.431,5.267,7.882,5.268V256C379.287,256,375.467,259.82,375.467,264.533z" fill="#ccd6f6" data-original="#000000" style="" class=""/>
			<path d="M443.733,392.533c-14.138,0-25.6,11.462-25.6,25.6V435.2c0,14.138,11.462,25.6,25.6,25.6c14.138,0,25.6-11.462,25.6-25.6     v-17.067C469.333,403.995,457.872,392.533,443.733,392.533z M452.267,435.2c0,4.713-3.82,8.533-8.533,8.533     s-8.533-3.82-8.533-8.533v-17.067c0-4.713,3.82-8.533,8.533-8.533s8.533,3.82,8.533,8.533V435.2z" fill="#ccd6f6" data-original="#000000" style="" class=""/>
			<path d="M401.067,443.733v-42.667c-0.001-3.451-2.08-6.562-5.268-7.882c-3.188-1.32-6.858-0.591-9.298,1.849l-8.533,8.533     c-2.44,2.44-3.169,6.11-1.849,9.298c1.32,3.188,4.431,5.267,7.882,5.268v25.6c-4.713,0-8.533,3.821-8.533,8.533     c0,4.713,3.82,8.533,8.533,8.533h17.067c4.713,0,8.533-3.821,8.533-8.533C409.6,447.554,405.78,443.733,401.067,443.733z" fill="#ccd6f6" data-original="#000000" style="" class=""/>
			<path d="M145.067,426.667c-4.713,0-8.533,3.82-8.533,8.533s-3.82,8.533-8.533,8.533s-8.533-3.82-8.533-8.533v-17.067     c0-4.713,3.82-8.533,8.533-8.533s8.533-3.82,8.533-8.533s-3.82-8.533-8.533-8.533c-14.138,0-25.6,11.462-25.6,25.6V435.2     c0,14.138,11.461,25.6,25.6,25.6s25.6-11.462,25.6-25.6C153.6,430.487,149.779,426.667,145.067,426.667z" fill="#ccd6f6" data-original="#000000" style="" class=""/>
			<path d="M85.333,443.733v-42.667c-0.001-3.451-2.08-6.562-5.268-7.882c-3.188-1.32-6.858-0.591-9.298,1.849l-8.533,8.533     c-2.44,2.44-3.169,6.11-1.849,9.298c1.32,3.188,4.431,5.267,7.882,5.268v25.6c-4.713,0-8.533,3.821-8.533,8.533     c0,4.713,3.82,8.533,8.533,8.533h17.067c4.713,0,8.533-3.821,8.533-8.533C93.867,447.554,90.046,443.733,85.333,443.733z" fill="#ccd6f6" data-original="#000000" style="" class=""/>
			<path d="M187.733,443.733V435.2c0-4.713-3.82-8.533-8.533-8.533s-8.533,3.82-8.533,8.533v8.533c-4.713,0-8.533,3.821-8.533,8.533     c0,4.713,3.82,8.533,8.533,8.533h17.067c4.713,0,8.533-3.821,8.533-8.533C196.267,447.554,192.446,443.733,187.733,443.733z" fill="#ccd6f6" data-original="#000000" style="" class=""/>
			<path d="M349.867,443.733V435.2c0-4.713-3.82-8.533-8.533-8.533s-8.533,3.82-8.533,8.533v8.533c-4.713,0-8.533,3.821-8.533,8.533     c0,4.713,3.821,8.533,8.533,8.533h17.067c4.713,0,8.533-3.821,8.533-8.533C358.4,447.554,354.58,443.733,349.867,443.733z" fill="#ccd6f6" data-original="#000000" style="" class=""/>
			<path d="M426.667,170.667c0,4.713,3.82,8.533,8.533,8.533h17.067c4.713,0,8.533-3.82,8.533-8.533s-3.821-8.533-8.533-8.533     v-42.667c-0.001-3.451-2.08-6.562-5.268-7.882c-3.188-1.32-6.858-0.591-9.298,1.849l-8.533,8.533     c-2.44,2.44-3.169,6.11-1.849,9.298c1.321,3.188,4.431,5.267,7.882,5.268v25.6C430.487,162.133,426.667,165.954,426.667,170.667z     " fill="#ccd6f6" data-original="#000000" style="" class=""/>
			<path d="M264.533,170.667c0,4.713,3.821,8.533,8.533,8.533h17.067c4.713,0,8.533-3.82,8.533-8.533s-3.82-8.533-8.533-8.533     v-42.667c-0.001-3.451-2.08-6.562-5.268-7.882c-3.188-1.32-6.858-0.591-9.298,1.849l-8.533,8.533     c-2.44,2.44-3.169,6.11-1.849,9.298c1.32,3.188,4.431,5.267,7.882,5.268v25.6C268.354,162.133,264.533,165.954,264.533,170.667z" fill="#ccd6f6" data-original="#000000" style="" class=""/>
			<path d="M230.4,136.533V153.6c0,4.713,3.82,8.533,8.533,8.533s8.533-3.821,8.533-8.533v-34.133     c-0.001-3.451-2.08-6.562-5.268-7.882c-3.188-1.32-6.858-0.591-9.298,1.849l-8.533,8.533c-2.44,2.44-3.169,6.11-1.849,9.298     C223.838,134.454,226.949,136.533,230.4,136.533z" fill="#ccd6f6" data-original="#000000" style="" class=""/>
		</g>
	</g>
</g>
<g xmlns="http://www.w3.org/2000/svg">
</g>
<g xmlns="http://www.w3.org/2000/svg">
</g>
<g xmlns="http://www.w3.org/2000/svg">
</g>
<g xmlns="http://www.w3.org/2000/svg">
</g>
<g xmlns="http://www.w3.org/2000/svg">
</g>
<g xmlns="http://www.w3.org/2000/svg">
</g>
<g xmlns="http://www.w3.org/2000/svg">
</g>
<g xmlns="http://www.w3.org/2000/svg">
</g>
<g xmlns="http://www.w3.org/2000/svg">
</g>
<g xmlns="http://www.w3.org/2000/svg">
</g>
<g xmlns="http://www.w3.org/2000/svg">
</g>
<g xmlns="http://www.w3.org/2000/svg">
</g>
<g xmlns="http://www.w3.org/2000/svg">
</g>
<g xmlns="http://www.w3.org/2000/svg">
</g>
<g xmlns="http://www.w3.org/2000/svg">
</g>
</g></svg>
