<?xml version="1.0"?>
<svg xmlns="http://www.w3.org/2000/svg" xmlns:xlink="http://www.w3.org/1999/xlink" xmlns:svgjs="http://svgjs.com/svgjs" version="1.1" width="512" height="512" x="0" y="0" viewBox="0 0 64 64" style="enable-background:new 0 0 512 512" xml:space="preserve" class=""><g><path xmlns="http://www.w3.org/2000/svg" d="m50.231 7.641 4.467 5.359-4.467 5.359 1.538 1.282 5.533-6.641-5.533-6.641z" fill="#ccd6f6" data-original="#000000" style="" class=""/><path xmlns="http://www.w3.org/2000/svg" d="m42.231 6.359-5.533 6.641 5.533 6.641 1.538-1.282-4.467-5.359 4.467-5.359z" fill="#ccd6f6" data-original="#000000" style="" class=""/><path xmlns="http://www.w3.org/2000/svg" d="m38.938 12h16.125v2h-16.125z" transform="matrix(.124 -.992 .992 .124 28.271 58.025)" fill="#ccd6f6" data-original="#000000" style="" class=""/><path xmlns="http://www.w3.org/2000/svg" d="m63 20v-14c0-2.757-2.243-5-5-5h-22c-2.757 0-5 2.243-5 5v14c0 .482.09.938.218 1.379-.866.241-1.695.605-2.471 1.058-.619-1.857-2.313-3.238-4.298-3.413.743-1.249 2.093-2.024 3.551-2.024v-2c-2.211 0-4.259 1.196-5.346 3.121l-.174.309c-.915-.902-2.146-1.43-3.48-1.43s-2.565.528-3.48 1.43l-.174-.309c-1.087-1.925-3.135-3.121-5.346-3.121v2c1.465 0 2.821.781 3.562 2.041-2.013.178-3.686 1.534-4.302 3.388-1.593-.935-3.394-1.429-5.26-1.429v2c1.413 0 2.772.363 3.998 1.028-1.225.921-1.998 2.37-1.998 3.972 0 1.138.388 2.22 1.122 3.129l.235.237c-.225.5-.357 1.051-.357 1.634 0 2.206 1.794 4 4 4h.881c.685 1.734 1.752 3.292 3.119 4.564v1.682l-7.473 2.134c-3.843 1.099-6.527 4.657-6.527 8.654v8.966h36v-8.966c0-3.997-2.684-7.556-6.527-8.654l-7.473-2.134v-1.682c1.367-1.272 2.434-2.831 3.119-4.564h.881c2.206 0 4-1.794 4-4 0-.582-.131-1.131-.356-1.631l.162-.162.071-.078c.735-.909 1.123-1.991 1.123-3.129 0-1.607-.778-3.06-2.01-3.98.693-.374 1.44-.641 2.208-.81.919 1.085 2.273 1.79 3.802 1.79h3.787l-5.069 5.069 1.492 2.465c-.154.33-.293.663-.416.995l-2.794.687v7.568l2.794.687c.123.332.262.665.416.995l-1.492 2.465 5.352 5.352 2.465-1.492c.33.154.663.293.995.416l.686 2.793h7.568l.687-2.794c.332-.123.664-.262.995-.416l2.465 1.492 5.352-5.352-1.492-2.465c.154-.331.293-.663.416-.995l2.793-.686v-7.568l-2.794-.687c-.123-.332-.262-.664-.416-.995l1.492-2.465-5.069-5.069h1.787c2.757 0 5-2.243 5-5zm-52 15c-1.103 0-2-.897-2-2s.897-2 2-2v1.384c0 .892.098 1.767.279 2.616zm4.738 14.847-.571-4.569.445-.127 2.067 2.756zm19.262 4.187v6.966h-4v-6h-2v6h-20v-6h-2v6h-4v-6.966c0-3.108 2.088-5.877 5.076-6.73l5.146-1.47 1.04 8.32 4.738-4.74 4.738 4.739 1.04-8.32 5.146 1.47c2.988.854 5.076 3.623 5.076 6.731zm-12.613-8.884.445.127-.571 4.569-1.941-1.94zm-1.387-1.483-2 2.666-2-2.666v-.58c.51.312 1.046.591 1.606.831l.394.17.394-.169c.561-.24 1.096-.52 1.606-.831zm-2-1.765c-3.659-1.747-6-5.438-6-9.519v-1.383h.758c2.667 0 5.192-.923 7.211-2.616l.203.202c1.073 1.073 2.392 1.804 3.828 2.161v1.637c0 4.081-2.341 7.771-6 9.518zm8-6.902h-.279c.181-.849.279-1.724.279-2.616v-1.384c1.103 0 2 .897 2 2s-.897 2-2 2zm2.375-5.201c-.666-.495-1.483-.799-2.375-.799-1.667 0-3.235-.649-4.414-1.828l-1.586-1.586-.707.707c-1.746 1.746-4.066 2.707-6.535 2.707h-2.758c-.892 0-1.709.304-2.375.799-.407-.533-.625-1.153-.625-1.799 0-1.364.93-2.555 2.261-2.895l.786-.2-.034-.812c-.002-.048-.007-.096-.012-.096 0 0-.001.001-.001.002 0-1.996 1.964-3.589 4.056-2.796l.855.323.398-.823c.508-1.051 1.54-1.703 2.691-1.703s2.183.652 2.69 1.704l.398.823.855-.323c2.094-.792 4.056.814 4.06 2.723l-.034.982.77.196c1.331.34 2.261 1.531 2.261 2.895 0 .646-.218 1.266-.625 1.799zm3.625-9.799v-14c0-1.654 1.346-3 3-3h22c1.654 0 3 1.346 3 3v14c0 1.654-1.346 3-3 3h-22c-1.654 0-3-1.346-3-3zm10.725 5-.195.794c-.332.123-.664.262-.995.416l-1.999-1.21zm14.038 7.946c.298.573.541 1.154.722 1.725l.169.536 2.346.577v4.432l-2.347.577-.169.536c-.181.57-.424 1.151-.722 1.725l-.259.498 1.255 2.074-3.133 3.133-2.074-1.255-.498.259c-.573.298-1.154.541-1.725.722l-.536.169-.576 2.346h-4.432l-.577-2.345-.534-.17c-.573-.182-1.154-.425-1.727-.723l-.498-.259-2.074 1.255-3.133-3.133 1.255-2.074-.259-.498c-.298-.572-.541-1.153-.723-1.727l-.17-.534-2.344-.576v-4.432l2.345-.577.17-.534c.182-.573.425-1.154.723-1.727l.259-.498-1.255-2.074 3.133-3.133 2.074 1.255.498-.259c.573-.298 1.154-.541 1.725-.722l.536-.169.576-2.346h4.433l.577 2.347.536.169c.57.181 1.151.424 1.725.722l.498.259 2.074-1.255 3.133 3.133-1.255 2.074zm-4.297-6.736c-.331-.154-.663-.293-.995-.416l-.196-.794h3.189z" fill="#ccd6f6" data-original="#000000" style="" class=""/><path xmlns="http://www.w3.org/2000/svg" d="m18 57h2v2h-2z" fill="#ccd6f6" data-original="#000000" style="" class=""/><path xmlns="http://www.w3.org/2000/svg" d="m18 53h2v2h-2z" fill="#ccd6f6" data-original="#000000" style="" class=""/><path xmlns="http://www.w3.org/2000/svg" d="m48 29c-4.963 0-9 4.037-9 9s4.037 9 9 9 9-4.037 9-9-4.037-9-9-9zm0 16c-3.859 0-7-3.141-7-7s3.141-7 7-7 7 3.141 7 7-3.141 7-7 7z" fill="#ccd6f6" data-original="#000000" style="" class=""/><path xmlns="http://www.w3.org/2000/svg" d="m48 33c-2.757 0-5 2.243-5 5s2.243 5 5 5 5-2.243 5-5-2.243-5-5-5zm0 8c-1.654 0-3-1.346-3-3s1.346-3 3-3 3 1.346 3 3-1.346 3-3 3z" fill="#ccd6f6" data-original="#000000" style="" class=""/></g></svg>
